<?xml version="1.0" standalone="no"?>
<!DOCTYPE svg PUBLIC "-//W3C//DTD SVG 20010904//EN"
 "http://www.w3.org/TR/2001/REC-SVG-20010904/DTD/svg10.dtd">
<svg version="1.0" xmlns="http://www.w3.org/2000/svg"
 width="756.000000pt" height="756.000000pt" viewBox="0 0 756.000000 756.000000"
 preserveAspectRatio="xMidYMid meet">

<g transform="translate(0.000000,756.000000) scale(0.100000,-0.100000)"
fill="#FFFFFF" stroke="none">
<path d="M3550 6420 c-539 -75 -1018 -372 -1315 -815 -498 -743 -388 -1756
256 -2370 128 -122 260 -216 427 -305 l62 -33 0 -353 0 -354 800 0 800 0 0
355 0 355 69 34 c102 52 265 165 364 253 238 211 428 501 528 805 114 346 125
690 34 1049 -155 612 -613 1097 -1225 1298 -189 62 -314 82 -535 86 -110 2
-229 0 -265 -5z m505 -547 c444 -86 841 -442 986 -886 82 -250 84 -530 7 -792
-49 -168 -153 -358 -265 -486 -61 -70 -202 -199 -217 -199 -6 0 -156 380 -333
844 l-323 845 0 349 0 349 33 -4 c17 -3 68 -11 112 -20z m-405 -328 l0 -346
-321 -842 c-176 -463 -324 -845 -328 -849 -3 -4 -42 23 -86 61 -226 192 -387
475 -442 775 -23 123 -22 342 1 461 55 281 177 516 366 705 98 98 228 194 338
249 117 59 347 128 435 130 l37 1 0 -345z m0 -1240 l0 -265 -95 0 c-52 0 -95
3 -95 7 0 9 184 523 188 523 1 0 2 -119 2 -265z m450 -256 c0 -5 -43 -9 -95
-9 l-95 0 0 268 1 267 94 -259 c52 -142 95 -262 95 -267z m166 -448 l82 -223
-52 -24 c-28 -13 -95 -36 -149 -51 l-97 -27 0 -278 0 -278 -270 0 -270 0 0
279 0 279 -34 6 c-89 17 -256 82 -256 100 0 11 128 371 150 424 l10 22 402 -2
402 -3 82 -224z"/>
<path d="M2982 1683 c4 -216 7 -243 27 -296 46 -117 163 -223 274 -247 36 -8
201 -10 527 -8 l475 3 60 29 c75 37 159 120 190 188 35 77 45 160 45 376 l0
192 -801 0 -801 0 4 -237z"/>
</g>
</svg>
